<svg width="1200" height="630" viewBox="0 0 1200 630" xmlns="http://www.w3.org/2000/svg">
  <defs>
    <linearGradient id="bg" x1="0%" y1="0%" x2="100%" y2="100%">
      <stop offset="0%" stop-color="#050505"/>
      <stop offset="55%" stop-color="#0A0F1C"/>
      <stop offset="100%" stop-color="#050505"/>
    </linearGradient>
    <radialGradient id="glowA" cx="20%" cy="15%" r="60%">
      <stop offset="0%" stop-color="#1E40AF" stop-opacity="0.35"/>
      <stop offset="100%" stop-color="#1E40AF" stop-opacity="0"/>
    </radialGradient>
    <radialGradient id="glowB" cx="85%" cy="90%" r="60%">
      <stop offset="0%" stop-color="#00FFC2" stop-opacity="0.35"/>
      <stop offset="100%" stop-color="#00FFC2" stop-opacity="0"/>
    </radialGradient>
    <linearGradient id="accent" x1="0%" y1="0%" x2="100%" y2="100%">
      <stop offset="0%" stop-color="#00FFC2"/>
      <stop offset="100%" stop-color="#3B82F6"/>
    </linearGradient>
    <pattern id="grid" width="40" height="40" patternUnits="userSpaceOnUse">
      <circle cx="1" cy="1" r="1" fill="rgba(255,255,255,0.08)"/>
    </pattern>
    <linearGradient id="line" x1="0%" y1="0%" x2="100%" y2="0%">
      <stop offset="0%" stop-color="rgba(255,255,255,0)"/>
      <stop offset="50%" stop-color="rgba(255,255,255,0.3)"/>
      <stop offset="100%" stop-color="rgba(255,255,255,0)"/>
    </linearGradient>
  </defs>

  <rect width="1200" height="630" fill="url(#bg)"/>
  <rect width="1200" height="630" fill="url(#grid)" opacity="0.6"/>
  <rect width="1200" height="630" fill="url(#glowA)"/>
  <rect width="1200" height="630" fill="url(#glowB)"/>
  <rect x="-200" y="90" width="1600" height="2" fill="url(#line)" opacity="0.35"/>
  <rect x="-200" y="510" width="1600" height="2" fill="url(#line)" opacity="0.25"/>

  <g transform="translate(110, 170)">
    <rect x="0" y="-62" width="96" height="96" rx="26" fill="url(#accent)"/>
    <rect x="10" y="-52" width="76" height="76" rx="20" fill="#050505" opacity="0.6"/>
    <path d="M28 -34 L68 -34 L68 6 L28 6 Z" fill="#050505"/>
    <path d="M28 -34 L50 -34 L50 22 L28 22 Z" fill="#050505"/>

    <text x="120" y="20" font-family="Inter, Arial, sans-serif" font-weight="900" font-size="86" fill="#F8FAFC" letter-spacing="-2">
      AppHub<tspan fill="#00FFC2">.ae</tspan>
    </text>
    <text x="120" y="78" font-family="Inter, Arial, sans-serif" font-weight="600" font-size="22" fill="#00FFC2" letter-spacing="6">
      AI INFRASTRUCTURE
    </text>
    <text x="120" y="124" font-family="Inter, Arial, sans-serif" font-weight="400" font-size="30" fill="#94A3B8" letter-spacing="1.5">
      DIGITAL DOMINANCE & GROWTH SYSTEMS
    </text>
    <text x="120" y="186" font-family="Inter, Arial, sans-serif" font-weight="300" font-size="24" fill="#64748B">
      The unified digital engine for AI, development, and global marketing.
    </text>
  </g>

  <g transform="translate(110, 520)">
    <rect width="240" height="6" rx="3" fill="url(#accent)"/>
    <rect x="260" y="2" width="540" height="2" rx="1" fill="rgba(255,255,255,0.15)"/>
    <circle cx="830" cy="4" r="4" fill="#00FFC2"/>
  </g>
</svg>
